<?xml version="1.0" standalone="no"?>
<!DOCTYPE svg PUBLIC "-//W3C//DTD SVG 20010904//EN"
 "http://www.w3.org/TR/2001/REC-SVG-20010904/DTD/svg10.dtd">
<svg version="1.0" xmlns="http://www.w3.org/2000/svg"
 width="480.000000pt" height="480.000000pt" viewBox="0 0 480.000000 480.000000"
 preserveAspectRatio="xMidYMid meet">
<metadata>
Created by potrace 1.14, written by Peter Selinger 2001-2017
</metadata>
<g transform="translate(0.000000,480.000000) scale(0.100000,-0.100000)"
fill="#000000" stroke="none">
<path d="M2339 3922 c-19 -22 -59 -70 -89 -107 -30 -37 -83 -102 -118 -144
-35 -42 -87 -106 -115 -143 -29 -37 -56 -67 -60 -67 -5 -1 -168 -80 -364 -176
-195 -96 -359 -175 -364 -175 -5 0 -9 -4 -9 -10 0 -5 -3 -9 -7 -8 -34 7 -138
-85 -203 -178 -8 -12 -33 -41 -55 -66 -22 -25 -53 -63 -70 -84 -16 -21 -46
-57 -65 -80 -19 -22 -53 -63 -75 -89 -22 -27 -45 -53 -51 -59 -6 -6 -16 -21
-22 -33 -11 -21 -10 -21 76 -19 144 4 262 -32 262 -80 0 -7 5 -14 11 -16 5 -2
11 -10 12 -18 2 -8 5 -19 8 -25 3 -5 12 -39 19 -75 12 -58 29 -91 45 -90 26 1
27 -3 21 -67 -8 -83 -16 -114 -26 -108 -5 3 -21 -8 -37 -25 -15 -16 -34 -30
-41 -30 -7 0 -11 -4 -7 -9 3 -5 -5 -13 -17 -17 -12 -3 -28 -13 -36 -20 -7 -8
-18 -12 -23 -9 -5 4 -9 2 -9 -4 0 -5 -10 -13 -21 -16 -12 -4 -35 -21 -51 -37
-21 -22 -37 -29 -61 -28 -18 1 -57 2 -87 1 l-55 -1 160 -105 159 -104 48 -118
c26 -65 54 -131 62 -148 20 -43 139 -325 176 -420 18 -44 36 -85 40 -90 5 -6
10 -22 12 -35 2 -14 9 -34 15 -45 9 -16 13 -17 27 -6 9 7 16 22 16 32 0 10 5
21 10 24 6 4 8 10 5 15 -3 5 -1 11 5 15 5 3 10 19 10 36 0 16 5 29 10 29 6 0
10 6 10 13 0 6 18 68 41 137 22 69 42 132 44 140 2 8 10 31 18 50 8 19 16 38
16 43 1 4 2 9 2 12 1 3 3 10 4 15 1 6 3 11 5 13 3 4 10 31 16 65 4 17 10 32
14 32 4 0 11 17 16 38 9 44 8 40 22 75 7 16 12 34 12 41 0 7 9 31 20 54 12 24
18 47 15 52 -3 5 -1 11 5 15 5 3 10 16 10 28 0 12 4 28 9 36 21 33 53 -13 168
-247 64 -130 120 -238 125 -240 4 -2 8 -10 8 -18 0 -16 42 -104 49 -104 10 1
126 164 123 172 -1 4 2 8 7 8 5 0 54 62 110 138 55 75 113 152 128 170 l28 33
26 -23 c61 -54 278 -238 301 -257 15 -11 22 -10 48 9 27 19 98 82 182 163 16
15 33 27 38 27 5 0 15 8 22 18 47 63 243 172 319 178 23 1 43 5 46 8 3 3 14 1
24 -4 12 -7 20 -7 24 0 4 6 11 8 16 5 5 -4 168 -6 361 -5 194 0 364 1 378 1
128 0 159 2 199 16 54 18 130 53 135 62 2 3 -17 58 -43 121 -26 63 -62 151
-80 195 -18 44 -45 109 -60 145 l-27 65 -130 47 c-71 26 -173 61 -227 79 l-97
33 -45 92 c-25 51 -56 99 -68 107 -12 7 -112 44 -222 81 -110 37 -209 71 -220
76 -11 5 -58 23 -105 40 -47 18 -119 45 -160 61 -41 16 -133 47 -203 70 -142
46 -137 41 -187 170 -12 29 -30 72 -41 96 -34 75 -62 141 -164 378 -8 17 -21
50 -30 75 -9 25 -21 54 -25 65 -14 35 -23 60 -26 74 -6 32 -22 30 -55 -7z
m265 -953 c-9 -11 -12 -19 -6 -19 14 0 8 -33 -7 -36 -6 -1 -7 0 -1 3 6 3 7 11
0 22 -5 10 -7 21 -3 24 3 4 1 13 -6 20 -9 12 -7 13 14 9 25 -4 25 -5 9 -23z
m-346 6 c22 -21 -21 -165 -50 -165 -6 0 -9 -3 -6 -6 4 -3 -3 -20 -15 -38 -12
-17 -31 -51 -42 -74 -14 -30 -26 -42 -42 -42 -12 0 -25 -5 -28 -10 -15 -25
-24 4 -10 36 8 19 14 35 14 37 0 1 5 16 12 32 7 17 13 32 14 35 1 3 7 18 13
33 7 15 15 39 18 52 l6 24 -113 0 c-184 -1 -169 -4 -169 35 0 65 -8 63 201 60
105 -1 193 -5 197 -9z m42 -150 c0 6 5 2 11 -8 6 -10 12 -65 13 -123 3 -110
13 -137 41 -114 8 7 15 19 15 26 0 8 3 14 8 14 4 0 15 14 25 32 l18 32 25 -29
c13 -15 24 -32 24 -36 0 -11 -49 -100 -66 -120 -12 -14 -11 -17 11 -29 13 -7
39 -13 57 -12 41 1 108 31 108 48 0 8 12 21 26 31 28 18 67 26 58 11 -3 -4 -2
-8 3 -8 4 0 8 -11 8 -25 0 -14 -3 -25 -7 -25 -5 0 -8 -8 -8 -17 -1 -30 -62
-80 -115 -96 -54 -16 -134 -14 -178 4 -22 10 -31 9 -45 -4 -11 -10 -30 -14
-52 -12 -19 2 -41 4 -48 4 -7 1 -2 18 16 47 l29 46 -24 58 c-27 69 -45 177
-32 202 5 9 8 21 7 25 -5 15 27 73 39 73 7 0 13 6 13 13 0 8 4 7 10 -3 5 -8
10 -10 10 -5z m160 -520 c6 -3 10 -13 10 -21 0 -20 17 -18 42 6 22 20 39 24
93 20 82 -6 124 -72 74 -118 -17 -17 -27 -18 -61 -10 -89 19 -121 -14 -133
-134 -8 -82 -9 -88 -25 -120 -20 -42 -39 -42 -76 -2 -34 35 -34 36 -35 137 -2
192 3 229 34 249 11 7 62 2 77 -7z m1640 2 c94 -11 162 -103 113 -152 -22 -23
-76 -14 -105 18 -47 50 -99 61 -139 29 -41 -34 -19 -53 111 -92 66 -20 170
-70 146 -70 -5 0 -3 -7 4 -15 19 -23 16 -131 -4 -151 -9 -8 -16 -20 -16 -26 0
-6 -3 -9 -6 -5 -3 3 -15 -3 -26 -13 -18 -16 -34 -18 -118 -16 -118 4 -157 21
-154 67 1 16 8 36 14 45 11 12 15 12 29 1 35 -31 98 -40 149 -22 19 7 31 47
19 67 -6 9 -15 14 -19 12 -5 -3 -11 2 -14 10 -3 9 -12 16 -18 16 -7 0 -21 8
-32 18 -10 9 -31 23 -46 31 -31 16 -70 87 -65 117 2 10 11 45 21 76 20 67 29
71 156 55z m-2613 -3 c-3 -3 -12 -4 -19 -1 -8 3 -5 6 6 6 11 1 17 -2 13 -5z
m2088 -3 c-2 -5 4 -16 15 -26 25 -22 26 -55 3 -56 -67 -5 -113 -4 -113 2 0 4
15 24 34 43 18 20 32 37 30 39 -2 1 6 3 17 4 11 1 17 -2 14 -6z m160 -120 c-3
-5 -1 -12 5 -16 17 -11 12 -111 -7 -126 -11 -10 -58 -15 -170 -17 -102 -3
-151 -7 -147 -14 4 -6 1 -9 -7 -6 -18 6 -23 31 -15 73 l6 33 78 -4 c42 -2 99
-6 125 -9 26 -2 55 -1 63 2 13 5 34 39 38 63 3 13 18 30 27 30 6 0 8 -4 4 -9z
m-871 -46 c6 -11 15 -23 20 -27 5 -3 68 -5 140 -2 154 4 166 6 160 16 -3 4 0
8 5 8 16 0 13 -76 -2 -89 -20 -16 -50 -19 -189 -20 -107 -1 -128 -3 -128 -16
0 -22 -55 -23 -77 -2 -20 19 -23 98 -6 128 18 31 61 33 77 4z m-1360 -100 c4
-10 -9 -13 -56 -13 l-61 1 28 23 c23 18 33 20 56 12 15 -5 30 -15 33 -23z
m1686 -136 c0 -18 -69 -77 -96 -82 -51 -9 -12 51 51 79 37 16 45 17 45 3z"/>
<path d="M708 2353 c-15 -4 -17 -26 -18 -202 0 -163 2 -200 14 -210 19 -16
143 -12 178 6 71 35 101 116 93 245 -4 71 -44 137 -90 150 -35 10 -153 17
-177 11z"/>
<path d="M522 2329 c-7 -11 -28 -27 -47 -34 -61 -26 -256 -123 -270 -135 -13
-11 1 -25 84 -86 55 -41 104 -74 110 -74 6 0 11 -3 11 -7 0 -5 17 -19 38 -33
20 -14 47 -35 60 -47 13 -13 26 -23 31 -23 4 0 7 103 7 230 -1 126 -3 230 -6
230 -3 0 -11 -9 -18 -21z"/>
</g>
</svg>
